<svg xmlns="http://www.w3.org/2000/svg" width="500" height="500" viewBox="0 0 500 500">
  <defs>
    <style>
      .cls-1 {
        fill: #fff;
        fill-rule: evenodd;
      }
    </style>
  </defs>
  <path id="Shape" class="cls-1" d="M352.707,502.511H146.138l-0.874-.892L0.186,353.922V147.4L146.146,0.053H352.7L496.639,147.415v206.5l-0.838.867Zm-204.07-5.958H350.184L490.682,351.5V149.843L350.19,6.012H148.63L6.143,149.855V351.486ZM492.506,151.375L146.233,5.779l2.31-5.492,346.273,145.6ZM491.544,354.8L145.272,5.129l4.233-4.193L495.777,350.607ZM348.69,500.665L144.633,4.165l5.51-2.265L354.2,498.4Zm-198.323-1.133H144.41V3.033h5.957v496.5ZM5.918,353.84l-5.507-2.273L144.634,1.9l5.508,2.273Zm484.983-.013L348.686,4.155l5.519-2.246L496.42,351.581Zm-136.477,145.7h-5.958V3.033h5.958v496.5Zm-204.281,1.133-5.51-2.266L348.69,1.9l5.51,2.265ZM5.274,354.806l-4.22-4.2L349.335,0.93l4.22,4.2ZM4.314,151.377l-2.3-5.5L350.3,0.284l2.3,5.5Zm0,204.077-2.288-5.5,490.5-204.075,2.289,5.5Zm145.2,146.171-4.239-4.186,346.272-350.9,4.239,4.186Zm204.7-.974-5.521-2.238L490.9,147.51l5.521,2.238Zm138.31-145.2L2.02,151.379l2.288-5.5,490.5,204.075ZM349.331,501.63L1.051,150.728l4.228-4.2,348.281,350.9Zm-200.78.644-2.325-5.485L492.5,349.961l2.325,5.485Zm201.737,0L2.008,355.448l2.313-5.488L352.6,496.788Zm-205.655-1.611L0.41,149.762,5.919,147.5,150.143,498.4ZM493.661,151.608H3.165V145.65h490.5v5.958Zm0,204.075H3.165v-5.958h490.5v5.958Z"/>
</svg>
