<svg xmlns="http://www.w3.org/2000/svg" width="2000" height="1000" viewBox="0 0 2000 1000">
  <defs>
    <style>
      .cls-1 {
        font-size: 200px;
        font-family: Futura;
        font-weight: 500;
      }

      .cls-1, .cls-2 {
        fill: #fff;
      }

      .cls-2 {
        fill-rule: evenodd;
      }
    </style>
  </defs>
  <text id="substance" class="cls-1" transform="translate(-9.133 586.767) scale(1.23)">substance</text>
  <text id="seven" class="cls-1" transform="translate(1394.776 579.102) scale(1.23)">seven</text>
  <path id="Shape" class="cls-2" d="M1292.74,648.656H1189.42l-0.44-.447-72.56-73.875v-103.3l73.01-73.7h103.31l72,73.707V574.328l-0.42.434Zm-102.07-2.981h100.81l70.28-72.554V472.258l-70.27-71.942H1190.67l-71.27,71.948V573.116Zm172-172.651L1189.47,400.2l1.16-2.747,173.19,72.825Zm-0.48,101.749-173.2-174.9,2.12-2.1,173.2,174.9Zm-71.46,72.959-102.06-248.34,2.76-1.133L1293.49,646.6Zm-99.19-.567h-2.98V398.826h2.98V647.165Zm-72.25-72.872-2.76-1.137,72.14-174.9,2.75,1.137Zm242.58-.006-71.14-174.9,2.76-1.123,71.14,174.9Zm-68.27,72.878h-2.98V398.826h2.98V647.165Zm-102.17.567-2.76-1.133,102.06-248.34,2.76,1.133Zm-72.47-72.956-2.11-2.1,174.21-174.9,2.11,2.1Zm-0.48-101.751-1.15-2.749,174.21-72.825,1.15,2.749Zm0,102.075-1.14-2.751,245.33-102.074,1.15,2.751Zm72.63,73.112-2.12-2.093L1362.19,470.6l2.12,2.093Zm102.38-.487-2.76-1.119,71.14-175.515,2.76,1.119Zm69.18-72.625L1117.34,473.026l1.14-2.751,245.34,102.074Zm-71.61,73.115L1116.85,472.7l2.12-2.1,174.2,175.515Zm-100.43.322-1.16-2.743,173.19-73.441,1.17,2.744Zm100.9,0-174.2-73.44,1.16-2.746,174.2,73.441Zm-102.86-.806-72.14-175.515,2.76-1.133L1191.43,646.6ZM1363.25,473.14H1117.91v-2.98h245.34v2.98Zm0,102.075H1117.91v-2.98h245.34v2.98Z"/>
</svg>
